<?xml version="1.0" encoding="UTF-8" standalone="yes"?><svg xmlns="http://www.w3.org/2000/svg" xmlns:xlink="http://www.w3.org/1999/xlink" height="737pt" style="width:595px;height:737px;" version="1.1" viewBox="0 0 595 737" width="595pt"><defs><filter height="300%" id="f1" width="300%" x="-1" y="-1"><feGaussianBlur result="blurOut" stdDeviation="2"/><feColorMatrix in="blurOut" result="blurOut2" type="matrix" values="0 0 0 0 0 0 0 0 0 0 0 0 0 0 0 0 0 0 .4 0"/><feOffset dx="4" dy="4" in="blurOut2" result="blurOut3"/><feBlend in="SourceGraphic" in2="blurOut3" mode="normal"/></filter></defs><g><text fill="#000000" font-size="18" lengthAdjust="spacingAndGlyphs" textLength="441" x="81.5" y="18">SinglePlayerDrinkingGames Deployment Diagram</text><polygon fill="#FFFFFF" filter="url(#f1)" points="55,62.9531,65,52.9531,234,52.9531,234,146.9531,224,156.9531,55,156.9531,55,62.9531" style="stroke: #000000; stroke-width: 2.0;"/><line style="stroke: #000000; stroke-width: 2.0;" x1="224" x2="233" y1="62.9531" y2="53.9531"/><path d="M55,62.9531 L224,62.9531 L224,156.9531 " fill="#FFFFFF" style="stroke: #000000; stroke-width: 2.0;"/><text fill="#000000" font-size="14" font-weight="bold" lengthAdjust="spacingAndGlyphs" textLength="58" x="58" y="79.9531">Drinker</text><path d="M33,229.9531 C33,226.9531 35,224.9531 38,224.9531 C41,224.9531 43,226.9531 43,229.9531 C43,226.9531 45,224.9531 48,224.9531 C51,224.9531 53,226.9531 53,229.9531 C53,226.9531 55,224.9531 58,224.9531 C61,224.9531 63,226.9531 63,229.9531 C63,226.9531 65,224.9531 68,224.9531 C71,224.9531 73,226.9531 73,229.9531 C73,226.9531 75,224.9531 78,224.9531 C81,224.9531 83,226.9531 83,229.9531 C83,226.9531 85,224.9531 88,224.9531 C91,224.9531 93,226.9531 93,229.9531 C93,226.9531 95,224.9531 98,224.9531 C101,224.9531 103,226.9531 103,229.9531 C103,226.9531 105,224.9531 108,224.9531 C111,224.9531 113,226.9531 113,229.9531 C113,226.9531 115,224.9531 118,224.9531 C121,224.9531 123,226.9531 123,229.9531 C123,226.9531 125,224.9531 128,224.9531 C131,224.9531 133,226.9531 133,229.9531 C133,226.9531 135,224.9531 138,224.9531 C141,224.9531 143,226.9531 143,229.9531 C143,226.9531 145,224.9531 148,224.9531 C151,224.9531 153,226.9531 153,229.9531 C153,226.9531 155,224.9531 158,224.9531 C161,224.9531 163,226.9531 163,229.9531 C163,226.9531 165,224.9531 168,224.9531 C171,224.9531 173,226.9531 173,229.9531 C173,226.9531 175,224.9531 178,224.9531 C181,224.9531 183,226.9531 183,229.9531 C183,226.9531 185,224.9531 188,224.9531 C191,224.9531 193,226.9531 193,229.9531 C193,226.9531 195,224.9531 198,224.9531 C201,224.9531 203,226.9531 203,229.9531 C203,226.9531 205,224.9531 208,224.9531 C211,224.9531 213,226.9531 213,229.9531 C213,226.9531 215,224.9531 218,224.9531 C221,224.9531 223,226.9531 223,229.9531 C223,226.9531 225,224.9531 228,224.9531 C231,224.9531 233,226.9531 233,229.9531 C233,226.9531 235,224.9531 238,224.9531 C241,224.9531 243,226.9531 243,229.9531 C243,226.9531 245,224.9531 248,224.9531 C251,224.9531 253,226.9531 253,229.9531 C253,226.9531 255,224.9531 258,224.9531 C261,224.9531 263,226.9531 263,229.9531 C263,226.9531 265,224.9531 268,224.9531 C271,224.9531 273,226.9531 273,229.9531 C273,226.9531 275,224.9531 278,224.9531 C281,224.9531 283,226.9531 283,229.9531 C283,226.9531 285,224.9531 288,224.9531 C291,224.9531 293,226.9531 293,229.9531 C293,226.9531 295,224.9531 298,224.9531 C301,224.9531 303,226.9531 303,229.9531 C303,226.9531 305,224.9531 308,224.9531 C311,224.9531 313,226.9531 313,229.9531 C313,226.9531 315,224.9531 318,224.9531 C321,224.9531 323,226.9531 323,229.9531 C323,226.9531 325,224.9531 328,224.9531 C331,224.9531 333,226.9531 333,229.9531 C333,226.9531 335,224.9531 338,224.9531 C341,224.9531 343,226.9531 343,229.9531 C343,226.9531 345,224.9531 348,224.9531 C351,224.9531 353,226.9531 353,229.9531 C353,226.9531 355,224.9531 358,224.9531 C361,224.9531 363,226.9531 363,229.9531 C363,226.9531 365,224.9531 368,224.9531 C371,224.9531 373,226.9531 373,229.9531 C373,226.9531 375,224.9531 378,224.9531 C381,224.9531 383,226.9531 383,229.9531 C383,226.9531 385,224.9531 388,224.9531 C391,224.9531 393,226.9531 393,229.9531 C396,229.9531 398,231.9531 398,234.9531 C398,237.9531 396,239.9531 393,239.9531 C396,239.9531 398,241.9531 398,244.9531 C398,247.9531 396,249.9531 393,249.9531 C396,249.9531 398,251.9531 398,254.9531 C398,257.9531 396,259.9531 393,259.9531 C396,259.9531 398,261.9531 398,264.9531 C398,267.9531 396,269.9531 393,269.9531 C396,269.9531 398,271.9531 398,274.9531 C398,277.9531 396,279.9531 393,279.9531 C396,279.9531 398,281.9531 398,284.9531 C398,287.9531 396,289.9531 393,289.9531 C396,289.9531 398,291.9531 398,294.9531 C398,297.9531 396,299.9531 393,299.9531 C396,299.9531 398,301.9531 398,304.9531 C398,307.9531 396,309.9531 393,309.9531 C396,309.9531 398,311.9531 398,314.9531 C398,317.9531 396,319.9531 393,319.9531 C396,319.9531 398,321.9531 398,324.9531 C398,327.9531 396,329.9531 393,329.9531 C396,329.9531 398,331.9531 398,334.9531 C398,337.9531 396,339.9531 393,339.9531 C396,339.9531 398,341.9531 398,344.9531 C398,347.9531 396,349.9531 393,349.9531 C396,349.9531 398,351.9531 398,354.9531 C398,357.9531 396,359.9531 393,359.9531 C396,359.9531 398,361.9531 398,364.9531 C398,367.9531 396,369.9531 393,369.9531 C396,369.9531 398,371.9531 398,374.9531 C398,377.9531 396,379.9531 393,379.9531 C396,379.9531 398,381.9531 398,384.9531 C398,387.9531 396,389.9531 393,389.9531 C396,389.9531 398,391.9531 398,394.9531 C398,397.9531 396,399.9531 393,399.9531 C396,399.9531 398,401.9531 398,404.9531 C398,407.9531 396,409.9531 393,409.9531 C396,409.9531 398,411.9531 398,414.9531 C398,417.9531 396,419.9531 393,419.9531 C396,419.9531 398,421.9531 398,424.9531 C398,427.9531 396,429.9531 393,429.9531 C396,429.9531 398,431.9531 398,434.9531 C398,437.9531 396,439.9531 393,439.9531 C396,439.9531 398,441.9531 398,444.9531 C398,447.9531 396,449.9531 393,449.9531 C396,449.9531 398,451.9531 398,454.9531 C398,457.9531 396,459.9531 393,459.9531 C396,459.9531 398,461.9531 398,464.9531 C398,467.9531 396,469.9531 393,469.9531 C396,469.9531 398,471.9531 398,474.9531 C398,477.9531 396,479.9531 393,479.9531 C396,479.9531 398,481.9531 398,484.9531 C398,487.9531 396,489.9531 393,489.9531 C396,489.9531 398,491.9531 398,494.9531 C398,497.9531 396,499.9531 393,499.9531 C396,499.9531 398,501.9531 398,504.9531 C398,507.9531 396,509.9531 393,509.9531 C396,509.9531 398,511.9531 398,514.9531 C398,517.9531 396,519.9531 393,519.9531 C396,519.9531 398,521.9531 398,524.9531 C398,527.9531 396,529.9531 393,529.9531 C396,529.9531 398,531.9531 398,534.9531 C398,537.9531 396,539.9531 393,539.9531 C396,539.9531 398,541.9531 398,544.9531 C398,547.9531 396,549.9531 393,549.9531 C396,549.9531 398,551.9531 398,554.9531 C398,557.9531 396,559.9531 393,559.9531 C396,559.9531 398,561.9531 398,564.9531 C398,567.9531 396,569.9531 393,569.9531 C396,569.9531 398,571.9531 398,574.9531 C398,577.9531 396,579.9531 393,579.9531 C396,579.9531 398,581.9531 398,584.9531 C398,587.9531 396,589.9531 393,589.9531 C396,589.9531 398,591.9531 398,594.9531 C398,597.9531 396,599.9531 393,599.9531 C396,599.9531 398,601.9531 398,604.9531 C398,607.9531 396,609.9531 393,609.9531 C396,609.9531 398,611.9531 398,614.9531 C398,617.9531 396,619.9531 393,619.9531 C396,619.9531 398,621.9531 398,624.9531 C398,627.9531 396,629.9531 393,629.9531 C396,629.9531 398,631.9531 398,634.9531 C398,637.9531 396,639.9531 393,639.9531 C393,642.9531 390,644.9531 388,644.9531 C385,644.9531 383,642.9531 383,639.9531 C383,642.9531 380,644.9531 378,644.9531 C375,644.9531 373,642.9531 373,639.9531 C373,642.9531 370,644.9531 368,644.9531 C365,644.9531 363,642.9531 363,639.9531 C363,642.9531 360,644.9531 358,644.9531 C355,644.9531 353,642.9531 353,639.9531 C353,642.9531 350,644.9531 348,644.9531 C345,644.9531 343,642.9531 343,639.9531 C343,642.9531 340,644.9531 338,644.9531 C335,644.9531 333,642.9531 333,639.9531 C333,642.9531 330,644.9531 328,644.9531 C325,644.9531 323,642.9531 323,639.9531 C323,642.9531 320,644.9531 318,644.9531 C315,644.9531 313,642.9531 313,639.9531 C313,642.9531 310,644.9531 308,644.9531 C305,644.9531 303,642.9531 303,639.9531 C303,642.9531 300,644.9531 298,644.9531 C295,644.9531 293,642.9531 293,639.9531 C293,642.9531 290,644.9531 288,644.9531 C285,644.9531 283,642.9531 283,639.9531 C283,642.9531 280,644.9531 278,644.9531 C275,644.9531 273,642.9531 273,639.9531 C273,642.9531 270,644.9531 268,644.9531 C265,644.9531 263,642.9531 263,639.9531 C263,642.9531 260,644.9531 258,644.9531 C255,644.9531 253,642.9531 253,639.9531 C253,642.9531 250,644.9531 248,644.9531 C245,644.9531 243,642.9531 243,639.9531 C243,642.9531 240,644.9531 238,644.9531 C235,644.9531 233,642.9531 233,639.9531 C233,642.9531 230,644.9531 228,644.9531 C225,644.9531 223,642.9531 223,639.9531 C223,642.9531 220,644.9531 218,644.9531 C215,644.9531 213,642.9531 213,639.9531 C213,642.9531 210,644.9531 208,644.9531 C205,644.9531 203,642.9531 203,639.9531 C203,642.9531 200,644.9531 198,644.9531 C195,644.9531 193,642.9531 193,639.9531 C193,642.9531 190,644.9531 188,644.9531 C185,644.9531 183,642.9531 183,639.9531 C183,642.9531 180,644.9531 178,644.9531 C175,644.9531 173,642.9531 173,639.9531 C173,642.9531 170,644.9531 168,644.9531 C165,644.9531 163,642.9531 163,639.9531 C163,642.9531 160,644.9531 158,644.9531 C155,644.9531 153,642.9531 153,639.9531 C153,642.9531 150,644.9531 148,644.9531 C145,644.9531 143,642.9531 143,639.9531 C143,642.9531 140,644.9531 138,644.9531 C135,644.9531 133,642.9531 133,639.9531 C133,642.9531 130,644.9531 128,644.9531 C125,644.9531 123,642.9531 123,639.9531 C123,642.9531 120,644.9531 118,644.9531 C115,644.9531 113,642.9531 113,639.9531 C113,642.9531 110,644.9531 108,644.9531 C105,644.9531 103,642.9531 103,639.9531 C103,642.9531 100,644.9531 98,644.9531 C95,644.9531 93,642.9531 93,639.9531 C93,642.9531 90,644.9531 88,644.9531 C85,644.9531 83,642.9531 83,639.9531 C83,642.9531 80,644.9531 78,644.9531 C75,644.9531 73,642.9531 73,639.9531 C73,642.9531 70,644.9531 68,644.9531 C65,644.9531 63,642.9531 63,639.9531 C63,642.9531 60,644.9531 58,644.9531 C55,644.9531 53,642.9531 53,639.9531 C53,642.9531 50,644.9531 48,644.9531 C45,644.9531 43,642.9531 43,639.9531 C43,642.9531 40,644.9531 38,644.9531 C35,644.9531 33,642.9531 33,639.9531 C30,639.9531 28,637.9531 28,634.9531 C28,631.9531 30,629.9531 33,629.9531 C30,629.9531 28,627.9531 28,624.9531 C28,621.9531 30,619.9531 33,619.9531 C30,619.9531 28,617.9531 28,614.9531 C28,611.9531 30,609.9531 33,609.9531 C30,609.9531 28,607.9531 28,604.9531 C28,601.9531 30,599.9531 33,599.9531 C30,599.9531 28,597.9531 28,594.9531 C28,591.9531 30,589.9531 33,589.9531 C30,589.9531 28,587.9531 28,584.9531 C28,581.9531 30,579.9531 33,579.9531 C30,579.9531 28,577.9531 28,574.9531 C28,571.9531 30,569.9531 33,569.9531 C30,569.9531 28,567.9531 28,564.9531 C28,561.9531 30,559.9531 33,559.9531 C30,559.9531 28,557.9531 28,554.9531 C28,551.9531 30,549.9531 33,549.9531 C30,549.9531 28,547.9531 28,544.9531 C28,541.9531 30,539.9531 33,539.9531 C30,539.9531 28,537.9531 28,534.9531 C28,531.9531 30,529.9531 33,529.9531 C30,529.9531 28,527.9531 28,524.9531 C28,521.9531 30,519.9531 33,519.9531 C30,519.9531 28,517.9531 28,514.9531 C28,511.9531 30,509.9531 33,509.9531 C30,509.9531 28,507.9531 28,504.9531 C28,501.9531 30,499.9531 33,499.9531 C30,499.9531 28,497.9531 28,494.9531 C28,491.9531 30,489.9531 33,489.9531 C30,489.9531 28,487.9531 28,484.9531 C28,481.9531 30,479.9531 33,479.9531 C30,479.9531 28,477.9531 28,474.9531 C28,471.9531 30,469.9531 33,469.9531 C30,469.9531 28,467.9531 28,464.9531 C28,461.9531 30,459.9531 33,459.9531 C30,459.9531 28,457.9531 28,454.9531 C28,451.9531 30,449.9531 33,449.9531 C30,449.9531 28,447.9531 28,444.9531 C28,441.9531 30,439.9531 33,439.9531 C30,439.9531 28,437.9531 28,434.9531 C28,431.9531 30,429.9531 33,429.9531 C30,429.9531 28,427.9531 28,424.9531 C28,421.9531 30,419.9531 33,419.9531 C30,419.9531 28,417.9531 28,414.9531 C28,411.9531 30,409.9531 33,409.9531 C30,409.9531 28,407.9531 28,404.9531 C28,401.9531 30,399.9531 33,399.9531 C30,399.9531 28,397.9531 28,394.9531 C28,391.9531 30,389.9531 33,389.9531 C30,389.9531 28,387.9531 28,384.9531 C28,381.9531 30,379.9531 33,379.9531 C30,379.9531 28,377.9531 28,374.9531 C28,371.9531 30,369.9531 33,369.9531 C30,369.9531 28,367.9531 28,364.9531 C28,361.9531 30,359.9531 33,359.9531 C30,359.9531 28,357.9531 28,354.9531 C28,351.9531 30,349.9531 33,349.9531 C30,349.9531 28,347.9531 28,344.9531 C28,341.9531 30,339.9531 33,339.9531 C30,339.9531 28,337.9531 28,334.9531 C28,331.9531 30,329.9531 33,329.9531 C30,329.9531 28,327.9531 28,324.9531 C28,321.9531 30,319.9531 33,319.9531 C30,319.9531 28,317.9531 28,314.9531 C28,311.9531 30,309.9531 33,309.9531 C30,309.9531 28,307.9531 28,304.9531 C28,301.9531 30,299.9531 33,299.9531 C30,299.9531 28,297.9531 28,294.9531 C28,291.9531 30,289.9531 33,289.9531 C30,289.9531 28,287.9531 28,284.9531 C28,281.9531 30,279.9531 33,279.9531 C30,279.9531 28,277.9531 28,274.9531 C28,271.9531 30,269.9531 33,269.9531 C30,269.9531 28,267.9531 28,264.9531 C28,261.9531 30,259.9531 33,259.9531 C30,259.9531 28,257.9531 28,254.9531 C28,251.9531 30,249.9531 33,249.9531 C30,249.9531 28,247.9531 28,244.9531 C28,241.9531 30,239.9531 33,239.9531 C30,239.9531 28,237.9531 28,234.9531 C28,231.9531 30,229.9531 33,229.9531 " fill="#FFFFFF" filter="url(#f1)" style="stroke: #000000; stroke-width: 2.0;"/><text fill="#000000" font-size="14" font-weight="bold" lengthAdjust="spacingAndGlyphs" textLength="151" x="138" y="249.9531">Dreamhost Hosting</text><polygon fill="#FFFFFF" filter="url(#f1)" points="70,284.9531,80,274.9531,365,274.9531,365,466.9531,355,476.9531,70,476.9531,70,284.9531" style="stroke: #000000; stroke-width: 2.0;"/><line style="stroke: #000000; stroke-width: 2.0;" x1="355" x2="364" y1="284.9531" y2="275.9531"/><path d="M70,284.9531 L355,284.9531 L355,476.9531 " fill="#FFFFFF" style="stroke: #000000; stroke-width: 2.0;"/><text fill="#000000" font-size="14" font-weight="bold" lengthAdjust="spacingAndGlyphs" textLength="278" x="73" y="301.9531">Web Server (Debian 6.06 Squeeze)</text><path d="M208,536.9531 C218,526.9531 272,526.9531 282,526.9531 C292,526.9531 346,526.9531 356,536.9531 L356,604.9531 C346,614.9531 272,614.9531 282,614.9531 C292,614.9531 218,614.9531 208,604.9531 L208,536.9531 " fill="#FFFFFF" filter="url(#f1)" style="stroke: #000000; stroke-width: 2.0;"/><path d="M208,536.9531 C218,546.9531 272,546.9531 282,546.9531 C292,546.9531 346,546.9531 356,536.9531 " fill="#FFFFFF" style="stroke: #000000; stroke-width: 2.0;"/><text fill="#000000" font-size="14" font-weight="bold" lengthAdjust="spacingAndGlyphs" textLength="131" x="216.5" y="561.9531">Database Server</text><rect fill="#FEFECE" filter="url(#f1)" height="36.2969" style="stroke: #A80036; stroke-width: 1.5;" width="112" x="98.5" y="96.9531"/><rect fill="#FEFECE" height="5" style="stroke: #A80036; stroke-width: 1.5;" width="10" x="93.5" y="101.9531"/><rect fill="#FEFECE" height="5" style="stroke: #A80036; stroke-width: 1.5;" width="10" x="93.5" y="123.25"/><text fill="#000000" font-size="14" lengthAdjust="spacingAndGlyphs" textLength="92" x="108.5" y="120.9531">Web Browser</text><rect fill="#FEFECE" filter="url(#f1)" height="36.2969" style="stroke: #A80036; stroke-width: 1.5;" width="120" x="229.5" y="310.9531"/><rect fill="#FEFECE" height="5" style="stroke: #A80036; stroke-width: 1.5;" width="10" x="224.5" y="315.9531"/><rect fill="#FEFECE" height="5" style="stroke: #A80036; stroke-width: 1.5;" width="10" x="224.5" y="337.25"/><text fill="#000000" font-size="14" lengthAdjust="spacingAndGlyphs" textLength="100" x="239.5" y="334.9531">Apache Server</text><rect fill="#FEFECE" filter="url(#f1)" height="36.2969" style="stroke: #A80036; stroke-width: 1.5;" width="96" x="250" y="424.9531"/><rect fill="#FEFECE" height="5" style="stroke: #A80036; stroke-width: 1.5;" width="10" x="245" y="429.9531"/><rect fill="#FEFECE" height="5" style="stroke: #A80036; stroke-width: 1.5;" width="10" x="245" y="451.25"/><text fill="#000000" font-size="14" lengthAdjust="spacingAndGlyphs" textLength="76" x="260" y="448.9531">PHP Server</text><rect fill="#FEFECE" filter="url(#f1)" height="36.2969" style="stroke: #A80036; stroke-width: 1.5;" width="60" x="268.5" y="562.9531"/><rect fill="#FEFECE" height="5" style="stroke: #A80036; stroke-width: 1.5;" width="10" x="263.5" y="567.9531"/><rect fill="#FEFECE" height="5" style="stroke: #A80036; stroke-width: 1.5;" width="10" x="263.5" y="589.25"/><text fill="#000000" font-size="14" lengthAdjust="spacingAndGlyphs" textLength="40" x="278.5" y="586.9531">mysql</text><polygon fill="#FBFB77" filter="url(#f1)" points="421.75,430.4531,421.75,455.5938,586.75,455.5938,586.75,440.4531,576.75,430.4531,421.75,430.4531" style="stroke: #A80036; stroke-width: 1.0;"/><polygon fill="#FBFB77" points="421.75,430.4531,421.75,455.5938,586.75,455.5938,586.75,440.4531,576.75,430.4531,485.89,430.4531,321.654,346.9631,477.89,430.4531,421.75,430.4531" style="stroke: #A80036; stroke-width: 1.0;"/><line style="stroke: #A80036; stroke-width: 1.0;" x1="576.75" x2="576.75" y1="430.4531" y2="440.4531"/><line style="stroke: #A80036; stroke-width: 1.0;" x1="586.75" x2="576.75" y1="440.4531" y2="440.4531"/><text fill="#000000" font-size="13" lengthAdjust="spacingAndGlyphs" textLength="144" x="427.75" y="448.4531">Apache Version 2.2.22</text><polygon fill="#FBFB77" filter="url(#f1)" points="421.75,568.4531,421.75,593.5938,564.75,593.5938,564.75,578.4531,554.75,568.4531,421.75,568.4531" style="stroke: #A80036; stroke-width: 1.0;"/><polygon fill="#FBFB77" points="421.75,568.4531,421.75,593.5938,564.75,593.5938,564.75,578.4531,554.75,568.4531,480.466,568.4531,322.697,461.1771,472.466,568.4531,421.75,568.4531" style="stroke: #A80036; stroke-width: 1.0;"/><line style="stroke: #A80036; stroke-width: 1.0;" x1="554.75" x2="554.75" y1="568.4531" y2="578.4531"/><line style="stroke: #A80036; stroke-width: 1.0;" x1="564.75" x2="554.75" y1="578.4531" y2="578.4531"/><text fill="#000000" font-size="13" lengthAdjust="spacingAndGlyphs" textLength="122" x="427.75" y="586.4531">PHP Version 5.3.13</text><polygon fill="#FBFB77" filter="url(#f1)" points="220.75,703.4531,220.75,728.5938,375.75,728.5938,375.75,713.4531,365.75,703.4531,220.75,703.4531" style="stroke: #A80036; stroke-width: 1.0;"/><polygon fill="#FBFB77" points="220.75,703.4531,220.75,728.5938,375.75,728.5938,375.75,713.4531,365.75,703.4531,302,703.4531,298,599.0681,294,703.4531,220.75,703.4531" style="stroke: #A80036; stroke-width: 1.0;"/><line style="stroke: #A80036; stroke-width: 1.0;" x1="365.75" x2="365.75" y1="703.4531" y2="713.4531"/><line style="stroke: #A80036; stroke-width: 1.0;" x1="375.75" x2="365.75" y1="713.4531" y2="713.4531"/><text fill="#000000" font-size="13" lengthAdjust="spacingAndGlyphs" textLength="134" x="226.75" y="721.4531">MySql Version 5.1.56</text><path d="M290.367,346.9631 C291.926,366.3701 294.482,398.1781 296.202,419.5791 " fill="none" style="stroke: #A80036; stroke-width: 1.0; stroke-dasharray: 7.0,7.0;"/><polygon fill="#A80036" points="296.62,424.7831,299.8846,415.4911,296.2186,419.7993,291.9104,416.1333,296.62,424.7831" style="stroke: #A80036; stroke-width: 1.0;"/><text fill="#000000" font-size="13" lengthAdjust="spacingAndGlyphs" textLength="22" x="295" y="390.9531">CGI</text><path d="M168.832,133.0591 C183.905,150.8611 207.467,179.8711 225,206.9531 C246.43,240.0561 266.969,281.0831 278.767,305.8541 " fill="none" style="stroke: #A80036; stroke-width: 1.0; stroke-dasharray: 7.0,7.0;"/><polygon fill="#A80036" points="281.008,310.5841,280.7708,300.7381,278.8679,306.0653,273.5407,304.1623,281.008,310.5841" style="stroke: #A80036; stroke-width: 1.0;"/><text fill="#000000" font-size="13" lengthAdjust="spacingAndGlyphs" textLength="41" x="219" y="194.9531">HTTPS</text><path d="M298,461.1771 C298,485.7031 298,530.7011 298,557.7161 " fill="none" style="stroke: #A80036; stroke-width: 1.0; stroke-dasharray: 7.0,7.0;"/><polygon fill="#A80036" points="298,562.8681,302,553.8681,298,557.8681,294,553.8681,298,562.8681" style="stroke: #A80036; stroke-width: 1.0;"/><text fill="#000000" font-size="13" lengthAdjust="spacingAndGlyphs" textLength="24" x="299" y="506.9531">TCP</text><path d="M58.195,156.6991 C55.9419,175.8061 53.1428,199.5421 50.3535,223.1951 " fill="none" style="stroke: #A80036; stroke-width: 1.0;"/><text fill="#000000" font-size="13" lengthAdjust="spacingAndGlyphs" textLength="91" x="56" y="194.9531">Public Internet</text></g></svg>