<?xml version="1.0" encoding="UTF-8" standalone="yes"?><svg xmlns="http://www.w3.org/2000/svg" xmlns:xlink="http://www.w3.org/1999/xlink" height="701pt" style="width:736px;height:701px;" version="1.1" viewBox="0 0 736 701" width="736pt"><defs><filter height="300%" id="f1" width="300%" x="-1" y="-1"><feGaussianBlur result="blurOut" stdDeviation="2"/><feColorMatrix in="blurOut" result="blurOut2" type="matrix" values="0 0 0 0 0 0 0 0 0 0 0 0 0 0 0 0 0 0 .4 0"/><feOffset dx="4" dy="4" in="blurOut2" result="blurOut3"/><feBlend in="SourceGraphic" in2="blurOut3" mode="normal"/></filter></defs><g><text fill="#000000" font-size="18" lengthAdjust="spacingAndGlyphs" textLength="441" x="157" y="18">SinglePlayerDrinkingGames Deployment Diagram</text><polygon fill="#FFFFFF" filter="url(#f1)" points="215,62.9531,225,52.9531,394,52.9531,394,146.9531,384,156.9531,215,156.9531,215,62.9531" style="stroke: #000000; stroke-width: 2.0;"/><line style="stroke: #000000; stroke-width: 2.0;" x1="384" x2="393" y1="62.9531" y2="53.9531"/><path d="M215,62.9531 L384,62.9531 L384,156.9531 " fill="#FFFFFF" style="stroke: #000000; stroke-width: 2.0;"/><text fill="#000000" font-size="14" font-weight="bold" lengthAdjust="spacingAndGlyphs" textLength="58" x="218" y="79.9531">Drinker</text><polygon fill="#FFFFFF" filter="url(#f1)" points="30,232.9531,40,222.9531,325,222.9531,325,430.9531,315,440.9531,30,440.9531,30,232.9531" style="stroke: #000000; stroke-width: 2.0;"/><line style="stroke: #000000; stroke-width: 2.0;" x1="315" x2="324" y1="232.9531" y2="223.9531"/><path d="M30,232.9531 L315,232.9531 L315,440.9531 " fill="#FFFFFF" style="stroke: #000000; stroke-width: 2.0;"/><text fill="#000000" font-size="14" font-weight="bold" lengthAdjust="spacingAndGlyphs" textLength="278" x="33" y="249.9531">Web Server (Debian 6.06 Squeeze)</text><path d="M392,516.9531 C402,506.9531 456,506.9531 466,506.9531 C476,506.9531 530,506.9531 540,516.9531 L540,600.9531 C530,610.9531 456,610.9531 466,610.9531 C476,610.9531 402,610.9531 392,600.9531 L392,516.9531 " fill="#FFFFFF" filter="url(#f1)" style="stroke: #000000; stroke-width: 2.0;"/><path d="M392,516.9531 C402,526.9531 456,526.9531 466,526.9531 C476,526.9531 530,526.9531 540,516.9531 " fill="#FFFFFF" style="stroke: #000000; stroke-width: 2.0;"/><text fill="#000000" font-size="14" font-weight="bold" lengthAdjust="spacingAndGlyphs" textLength="131" x="400.5" y="541.9531">Database Server</text><rect fill="#FEFECE" filter="url(#f1)" height="36.2969" style="stroke: #A80036; stroke-width: 1.5;" width="112" x="258.5" y="96.9531"/><rect fill="#FEFECE" height="5" style="stroke: #A80036; stroke-width: 1.5;" width="10" x="253.5" y="101.9531"/><rect fill="#FEFECE" height="5" style="stroke: #A80036; stroke-width: 1.5;" width="10" x="253.5" y="123.25"/><text fill="#000000" font-size="14" lengthAdjust="spacingAndGlyphs" textLength="92" x="268.5" y="120.9531">Web Browser</text><rect fill="#FEFECE" filter="url(#f1)" height="36.2969" style="stroke: #A80036; stroke-width: 1.5;" width="120" x="162.5" y="266.9531"/><rect fill="#FEFECE" height="5" style="stroke: #A80036; stroke-width: 1.5;" width="10" x="157.5" y="271.9531"/><rect fill="#FEFECE" height="5" style="stroke: #A80036; stroke-width: 1.5;" width="10" x="157.5" y="293.25"/><text fill="#000000" font-size="14" lengthAdjust="spacingAndGlyphs" textLength="100" x="172.5" y="290.9531">Apache Server</text><rect fill="#FEFECE" filter="url(#f1)" height="36.2969" style="stroke: #A80036; stroke-width: 1.5;" width="96" x="183" y="380.9531"/><rect fill="#FEFECE" height="5" style="stroke: #A80036; stroke-width: 1.5;" width="10" x="178" y="385.9531"/><rect fill="#FEFECE" height="5" style="stroke: #A80036; stroke-width: 1.5;" width="10" x="178" y="407.25"/><text fill="#000000" font-size="14" lengthAdjust="spacingAndGlyphs" textLength="76" x="193" y="404.9531">PHP Server</text><rect fill="#FEFECE" filter="url(#f1)" height="36.2969" style="stroke: #A80036; stroke-width: 1.5;" width="60" x="416.5" y="550.9531"/><rect fill="#FEFECE" height="5" style="stroke: #A80036; stroke-width: 1.5;" width="10" x="411.5" y="555.9531"/><rect fill="#FEFECE" height="5" style="stroke: #A80036; stroke-width: 1.5;" width="10" x="411.5" y="577.25"/><text fill="#000000" font-size="14" lengthAdjust="spacingAndGlyphs" textLength="40" x="426.5" y="574.9531">mysql</text><polygon fill="#FBFB77" filter="url(#f1)" points="349.75,386.4531,349.75,411.5938,514.75,411.5938,514.75,396.4531,504.75,386.4531,349.75,386.4531" style="stroke: #A80036; stroke-width: 1.0;"/><polygon fill="#FBFB77" points="349.75,386.4531,349.75,411.5938,514.75,411.5938,514.75,396.4531,504.75,386.4531,414.405,386.4531,253.894,302.9631,406.405,386.4531,349.75,386.4531" style="stroke: #A80036; stroke-width: 1.0;"/><line style="stroke: #A80036; stroke-width: 1.0;" x1="504.75" x2="504.75" y1="386.4531" y2="396.4531"/><line style="stroke: #A80036; stroke-width: 1.0;" x1="514.75" x2="504.75" y1="396.4531" y2="396.4531"/><text fill="#000000" font-size="13" lengthAdjust="spacingAndGlyphs" textLength="144" x="355.75" y="404.4531">Apache Version 2.2.22</text><polygon fill="#FBFB77" filter="url(#f1)" points="159.75,556.4531,159.75,581.5938,302.75,581.5938,302.75,566.4531,292.75,556.4531,159.75,556.4531" style="stroke: #A80036; stroke-width: 1.0;"/><polygon fill="#FBFB77" points="159.75,556.4531,159.75,581.5938,302.75,581.5938,302.75,566.4531,292.75,556.4531,235,556.4531,231,416.9861,227,556.4531,159.75,556.4531" style="stroke: #A80036; stroke-width: 1.0;"/><line style="stroke: #A80036; stroke-width: 1.0;" x1="292.75" x2="292.75" y1="556.4531" y2="566.4531"/><line style="stroke: #A80036; stroke-width: 1.0;" x1="302.75" x2="292.75" y1="566.4531" y2="566.4531"/><text fill="#000000" font-size="13" lengthAdjust="spacingAndGlyphs" textLength="122" x="165.75" y="574.4531">PHP Version 5.3.13</text><polygon fill="#FBFB77" filter="url(#f1)" points="368.75,667.4531,368.75,692.5938,523.75,692.5938,523.75,677.4531,513.75,667.4531,368.75,667.4531" style="stroke: #A80036; stroke-width: 1.0;"/><polygon fill="#FBFB77" points="368.75,667.4531,368.75,692.5938,523.75,692.5938,523.75,677.4531,513.75,667.4531,450,667.4531,446,586.9841,442,667.4531,368.75,667.4531" style="stroke: #A80036; stroke-width: 1.0;"/><line style="stroke: #A80036; stroke-width: 1.0;" x1="513.75" x2="513.75" y1="667.4531" y2="677.4531"/><line style="stroke: #A80036; stroke-width: 1.0;" x1="523.75" x2="513.75" y1="677.4531" y2="677.4531"/><text fill="#000000" font-size="13" lengthAdjust="spacingAndGlyphs" textLength="134" x="374.75" y="685.4531">MySql Version 5.1.56</text><path d="M223.367,302.9631 C224.926,322.3701 227.482,354.1781 229.202,375.5791 " fill="none" style="stroke: #A80036; stroke-width: 1.0; stroke-dasharray: 7.0,7.0;"/><polygon fill="#A80036" points="229.62,380.7831,232.8846,371.4911,229.2186,375.7993,224.9104,372.1333,229.62,380.7831" style="stroke: #A80036; stroke-width: 1.0;"/><text fill="#000000" font-size="13" lengthAdjust="spacingAndGlyphs" textLength="22" x="229" y="346.9531">CGI</text><path d="M314.2,132.9811 C313.618,150.8531 310.387,179.0631 297,198.9531 C293.421,204.2711 289.748,202.6471 285,206.9531 C266.521,223.7091 248.841,246.0661 236.94,262.3711 " fill="none" style="stroke: #A80036; stroke-width: 1.0; stroke-dasharray: 7.0,7.0;"/><polygon fill="#A80036" points="233.741,266.8001,242.2532,261.8461,236.6685,262.7468,235.7678,257.1621,233.741,266.8001" style="stroke: #A80036; stroke-width: 1.0;"/><text fill="#000000" font-size="13" lengthAdjust="spacingAndGlyphs" textLength="41" x="307" y="194.9531">HTTPS</text><path d="M252.799,416.9861 C292.719,448.1801 377.383,514.3361 420.14,547.7461 " fill="none" style="stroke: #A80036; stroke-width: 1.0; stroke-dasharray: 7.0,7.0;"/><polygon fill="#A80036" points="424.144,550.8751,419.515,542.1819,420.2041,547.7966,414.5894,548.4858,424.144,550.8751" style="stroke: #A80036; stroke-width: 1.0;"/><text fill="#000000" font-size="13" lengthAdjust="spacingAndGlyphs" textLength="24" x="334" y="478.9531">TCP</text><path d="M215.289,124.4531 C201.306,140.8931 174.988,177.3271 195,198.9531 C210.592,215.8031 280.488,192.1071 298,206.9531 C303.291,211.4381 307.235,217.1401 310.158,223.4061 " fill="none" style="stroke: #A80036; stroke-width: 1.0;"/><text fill="#000000" font-size="13" lengthAdjust="spacingAndGlyphs" textLength="91" x="196" y="194.9531">Public Internet</text><path d="M324.549,286.5001 C356.653,289.2821 482.448,304.8841 532,380.9531 C564.793,431.2951 550.174,506.5761 539.554,544.4311 " fill="none" style="stroke: #A80036; stroke-width: 1.0;"/><text fill="#000000" font-size="13" lengthAdjust="spacingAndGlyphs" textLength="182" x="553" y="403.9531">DreamHost Internal Network</text></g></svg>